<svg width="59" height="74" viewBox="0 0 59 74" fill="none" xmlns="http://www.w3.org/2000/svg">
<path d="M58.26 48.3899C57.706 56.0399 54.874 62.06 49.763 66.45C44.685 70.85 37.98 73.0499 29.646 73.0499C20.532 73.0499 13.354 69.99 8.11304 63.87C2.90474 57.71 0.300537 49.2799 0.300537 38.5699V34.23C0.300537 27.39 1.50504 21.3699 3.91404 16.1599C6.32304 10.9499 9.75703 6.96995 14.217 4.19995C18.709 1.39995 23.917 0 29.842 0C38.045 0 44.653 2.19997 49.666 6.58997C54.679 10.99 57.576 17.15 58.357 25.1H43.709C43.351 20.51 42.065 17.1899 39.851 15.1399C37.67 13.0499 34.334 12.0099 29.842 12.0099C24.959 12.0099 21.297 13.7699 18.855 17.2799C16.446 20.7699 15.209 26.1899 15.144 33.5399V38.9199C15.144 46.5999 16.3 52.2099 18.611 55.7599C20.955 59.3099 24.633 61.08 29.646 61.08C34.171 61.08 37.54 60.0599 39.754 58.0099C42 55.9199 43.286 52.7199 43.611 48.3899H58.26Z" fill="black"/>
</svg>
